<mxfile host="app.diagrams.net" modified="2023-01-30T12:58:13.801Z" agent="5.0 (Windows NT 10.0; Win64; x64) AppleWebKit/537.36 (KHTML, like Gecko) Chrome/109.0.0.0 Safari/537.36" etag="KgAWMqc8pcIXAK4OXQhM" version="20.8.13" type="github">
  <diagram id="C5RBs43oDa-KdzZeNtuy" name="Page-1">
    <mxGraphModel dx="2630" dy="2167" grid="1" gridSize="10" guides="1" tooltips="1" connect="1" arrows="1" fold="1" page="1" pageScale="1" pageWidth="827" pageHeight="1169" math="0" shadow="0">
      <root>
        <mxCell id="WIyWlLk6GJQsqaUBKTNV-0" />
        <mxCell id="WIyWlLk6GJQsqaUBKTNV-1" parent="WIyWlLk6GJQsqaUBKTNV-0" />
        <mxCell id="M0FN-xJ6hnQDgg32db2r-20" value="" style="rounded=0;whiteSpace=wrap;html=1;" vertex="1" parent="WIyWlLk6GJQsqaUBKTNV-1">
          <mxGeometry x="147.5" y="-30" width="160" height="720" as="geometry" />
        </mxCell>
        <mxCell id="M0FN-xJ6hnQDgg32db2r-15" value="" style="rounded=0;whiteSpace=wrap;html=1;" vertex="1" parent="WIyWlLk6GJQsqaUBKTNV-1">
          <mxGeometry x="980" y="-30" width="210" height="720" as="geometry" />
        </mxCell>
        <mxCell id="M0FN-xJ6hnQDgg32db2r-13" value="" style="rounded=0;whiteSpace=wrap;html=1;" vertex="1" parent="WIyWlLk6GJQsqaUBKTNV-1">
          <mxGeometry x="370" y="-30" width="580" height="720" as="geometry" />
        </mxCell>
        <mxCell id="M0FN-xJ6hnQDgg32db2r-0" value="PIT" style="rounded=0;whiteSpace=wrap;html=1;" vertex="1" parent="WIyWlLk6GJQsqaUBKTNV-1">
          <mxGeometry x="-32.5" y="10" width="120" height="60" as="geometry" />
        </mxCell>
        <mxCell id="M0FN-xJ6hnQDgg32db2r-1" value="" style="endArrow=classic;html=1;rounded=0;exitX=1;exitY=0.5;exitDx=0;exitDy=0;entryX=0;entryY=0.5;entryDx=0;entryDy=0;" edge="1" parent="WIyWlLk6GJQsqaUBKTNV-1" source="M0FN-xJ6hnQDgg32db2r-0" target="M0FN-xJ6hnQDgg32db2r-3">
          <mxGeometry width="50" height="50" relative="1" as="geometry">
            <mxPoint x="390" y="310" as="sourcePoint" />
            <mxPoint x="200" y="40" as="targetPoint" />
          </mxGeometry>
        </mxCell>
        <mxCell id="M0FN-xJ6hnQDgg32db2r-2" value="~1 ms" style="text;html=1;strokeColor=none;fillColor=none;align=center;verticalAlign=middle;whiteSpace=wrap;rounded=0;" vertex="1" parent="WIyWlLk6GJQsqaUBKTNV-1">
          <mxGeometry x="87.5" y="10" width="60" height="30" as="geometry" />
        </mxCell>
        <mxCell id="M0FN-xJ6hnQDgg32db2r-23" value="" style="edgeStyle=orthogonalEdgeStyle;rounded=0;orthogonalLoop=1;jettySize=auto;html=1;" edge="1" parent="WIyWlLk6GJQsqaUBKTNV-1" source="M0FN-xJ6hnQDgg32db2r-3" target="M0FN-xJ6hnQDgg32db2r-22">
          <mxGeometry relative="1" as="geometry" />
        </mxCell>
        <mxCell id="M0FN-xJ6hnQDgg32db2r-3" value="k_tmr_tick" style="rounded=0;whiteSpace=wrap;html=1;" vertex="1" parent="WIyWlLk6GJQsqaUBKTNV-1">
          <mxGeometry x="167.5" y="10" width="120" height="60" as="geometry" />
        </mxCell>
        <mxCell id="M0FN-xJ6hnQDgg32db2r-5" value="" style="endArrow=classic;html=1;rounded=0;exitX=1;exitY=0.5;exitDx=0;exitDy=0;entryX=-0.005;entryY=0.056;entryDx=0;entryDy=0;entryPerimeter=0;" edge="1" parent="WIyWlLk6GJQsqaUBKTNV-1" source="M0FN-xJ6hnQDgg32db2r-3" target="M0FN-xJ6hnQDgg32db2r-6">
          <mxGeometry width="50" height="50" relative="1" as="geometry">
            <mxPoint x="390" y="210" as="sourcePoint" />
            <mxPoint x="480" y="40" as="targetPoint" />
          </mxGeometry>
        </mxCell>
        <mxCell id="M0FN-xJ6hnQDgg32db2r-6" value="k_proc_schedule_tick" style="rounded=0;whiteSpace=wrap;html=1;" vertex="1" parent="WIyWlLk6GJQsqaUBKTNV-1">
          <mxGeometry x="490" y="10" width="130" height="540" as="geometry" />
        </mxCell>
        <mxCell id="M0FN-xJ6hnQDgg32db2r-7" value="&lt;div style=&quot;text-align: left;&quot;&gt;&lt;span style=&quot;background-color: initial;&quot;&gt;k_que_dispatch(&lt;/span&gt;&lt;/div&gt;&lt;span style=&quot;white-space: pre;&quot;&gt;&lt;div style=&quot;text-align: left;&quot;&gt;&lt;span style=&quot;background-color: initial;&quot;&gt;	&lt;/span&gt;&lt;span style=&quot;background-color: initial; white-space: normal;&quot;&gt;k_proc_schedule_evaluate&lt;/span&gt;&lt;/div&gt;&lt;/span&gt;&lt;div style=&quot;text-align: left;&quot;&gt;&lt;span style=&quot;background-color: initial;&quot;&gt;)&lt;/span&gt;&lt;/div&gt;" style="rounded=0;whiteSpace=wrap;html=1;" vertex="1" parent="WIyWlLk6GJQsqaUBKTNV-1">
          <mxGeometry x="995" y="220" width="180" height="60" as="geometry" />
        </mxCell>
        <mxCell id="M0FN-xJ6hnQDgg32db2r-8" value="1 ms" style="text;html=1;strokeColor=none;fillColor=none;align=center;verticalAlign=middle;whiteSpace=wrap;rounded=0;" vertex="1" parent="WIyWlLk6GJQsqaUBKTNV-1">
          <mxGeometry x="310" y="10" width="60" height="30" as="geometry" />
        </mxCell>
        <mxCell id="M0FN-xJ6hnQDgg32db2r-10" value="" style="endArrow=classic;html=1;rounded=0;exitX=1;exitY=0.444;exitDx=0;exitDy=0;entryX=0;entryY=0.5;entryDx=0;entryDy=0;exitPerimeter=0;" edge="1" parent="WIyWlLk6GJQsqaUBKTNV-1" source="M0FN-xJ6hnQDgg32db2r-6" target="M0FN-xJ6hnQDgg32db2r-7">
          <mxGeometry width="50" height="50" relative="1" as="geometry">
            <mxPoint x="710" y="220" as="sourcePoint" />
            <mxPoint x="610" y="30" as="targetPoint" />
          </mxGeometry>
        </mxCell>
        <mxCell id="M0FN-xJ6hnQDgg32db2r-11" value="GRANULARITY_MS interval reached" style="text;html=1;strokeColor=none;fillColor=none;align=center;verticalAlign=middle;whiteSpace=wrap;rounded=0;" vertex="1" parent="WIyWlLk6GJQsqaUBKTNV-1">
          <mxGeometry x="620" y="220" width="130" height="30" as="geometry" />
        </mxCell>
        <mxCell id="M0FN-xJ6hnQDgg32db2r-14" value="Process scheduler" style="text;html=1;strokeColor=none;fillColor=none;align=center;verticalAlign=middle;whiteSpace=wrap;rounded=0;" vertex="1" parent="WIyWlLk6GJQsqaUBKTNV-1">
          <mxGeometry x="590" y="-30" width="140" height="30" as="geometry" />
        </mxCell>
        <mxCell id="M0FN-xJ6hnQDgg32db2r-16" value="Kernel queue" style="text;html=1;strokeColor=none;fillColor=none;align=center;verticalAlign=middle;whiteSpace=wrap;rounded=0;" vertex="1" parent="WIyWlLk6GJQsqaUBKTNV-1">
          <mxGeometry x="1015" y="-30" width="140" height="30" as="geometry" />
        </mxCell>
        <mxCell id="M0FN-xJ6hnQDgg32db2r-21" value="Interrupt service routine" style="text;html=1;strokeColor=none;fillColor=none;align=center;verticalAlign=middle;whiteSpace=wrap;rounded=0;" vertex="1" parent="WIyWlLk6GJQsqaUBKTNV-1">
          <mxGeometry x="157.5" y="-30" width="140" height="30" as="geometry" />
        </mxCell>
        <mxCell id="M0FN-xJ6hnQDgg32db2r-22" value="Return from interrupt" style="rounded=0;whiteSpace=wrap;html=1;fillColor=#FFCCCC;" vertex="1" parent="WIyWlLk6GJQsqaUBKTNV-1">
          <mxGeometry x="167.5" y="160" width="120" height="450" as="geometry" />
        </mxCell>
        <mxCell id="M0FN-xJ6hnQDgg32db2r-24" value="if PIT drift value reached" style="text;html=1;strokeColor=none;fillColor=none;align=center;verticalAlign=middle;whiteSpace=wrap;rounded=0;" vertex="1" parent="WIyWlLk6GJQsqaUBKTNV-1">
          <mxGeometry x="225" y="90" width="72.5" height="50" as="geometry" />
        </mxCell>
        <mxCell id="M0FN-xJ6hnQDgg32db2r-26" value="GRANULARITY_MS interval not reached" style="text;html=1;strokeColor=none;fillColor=none;align=center;verticalAlign=middle;whiteSpace=wrap;rounded=0;" vertex="1" parent="WIyWlLk6GJQsqaUBKTNV-1">
          <mxGeometry x="370" y="160" width="120" height="40" as="geometry" />
        </mxCell>
        <mxCell id="M0FN-xJ6hnQDgg32db2r-27" value="k_proc_schedule_setNeedsKernelHandling" style="rounded=0;whiteSpace=wrap;html=1;" vertex="1" parent="WIyWlLk6GJQsqaUBKTNV-1">
          <mxGeometry x="680" y="280" width="240" height="60" as="geometry" />
        </mxCell>
        <mxCell id="M0FN-xJ6hnQDgg32db2r-30" value="k_proc_schedule_switch" style="rounded=0;whiteSpace=wrap;html=1;" vertex="1" parent="WIyWlLk6GJQsqaUBKTNV-1">
          <mxGeometry x="680" y="390" width="240" height="60" as="geometry" />
        </mxCell>
        <mxCell id="M0FN-xJ6hnQDgg32db2r-31" value="" style="endArrow=classic;html=1;rounded=0;exitX=0.5;exitY=1;exitDx=0;exitDy=0;entryX=0.5;entryY=0;entryDx=0;entryDy=0;" edge="1" parent="WIyWlLk6GJQsqaUBKTNV-1" source="M0FN-xJ6hnQDgg32db2r-27" target="M0FN-xJ6hnQDgg32db2r-30">
          <mxGeometry width="50" height="50" relative="1" as="geometry">
            <mxPoint x="920" y="290" as="sourcePoint" />
            <mxPoint x="970" y="240" as="targetPoint" />
          </mxGeometry>
        </mxCell>
        <mxCell id="M0FN-xJ6hnQDgg32db2r-32" value="procId: 0" style="text;html=1;strokeColor=none;fillColor=none;align=center;verticalAlign=middle;whiteSpace=wrap;rounded=0;" vertex="1" parent="WIyWlLk6GJQsqaUBKTNV-1">
          <mxGeometry x="800" y="350" width="60" height="30" as="geometry" />
        </mxCell>
        <mxCell id="M0FN-xJ6hnQDgg32db2r-33" value="" style="endArrow=classic;html=1;rounded=0;exitX=0.25;exitY=1;exitDx=0;exitDy=0;entryX=1;entryY=0.5;entryDx=0;entryDy=0;" edge="1" parent="WIyWlLk6GJQsqaUBKTNV-1" source="M0FN-xJ6hnQDgg32db2r-7" target="M0FN-xJ6hnQDgg32db2r-27">
          <mxGeometry width="50" height="50" relative="1" as="geometry">
            <mxPoint x="920" y="290" as="sourcePoint" />
            <mxPoint x="970" y="240" as="targetPoint" />
            <Array as="points">
              <mxPoint x="1040" y="310" />
            </Array>
          </mxGeometry>
        </mxCell>
        <mxCell id="M0FN-xJ6hnQDgg32db2r-35" value="" style="endArrow=classic;html=1;rounded=0;exitX=0.005;exitY=0.345;exitDx=0;exitDy=0;exitPerimeter=0;entryX=1.002;entryY=0.08;entryDx=0;entryDy=0;entryPerimeter=0;" edge="1" parent="WIyWlLk6GJQsqaUBKTNV-1" source="M0FN-xJ6hnQDgg32db2r-6" target="M0FN-xJ6hnQDgg32db2r-22">
          <mxGeometry width="50" height="50" relative="1" as="geometry">
            <mxPoint x="490" y="190" as="sourcePoint" />
            <mxPoint x="290" y="196" as="targetPoint" />
          </mxGeometry>
        </mxCell>
        <mxCell id="M0FN-xJ6hnQDgg32db2r-36" value="" style="endArrow=classic;html=1;rounded=0;exitX=0.5;exitY=1;exitDx=0;exitDy=0;" edge="1" parent="WIyWlLk6GJQsqaUBKTNV-1" source="M0FN-xJ6hnQDgg32db2r-7">
          <mxGeometry width="50" height="50" relative="1" as="geometry">
            <mxPoint x="920" y="490" as="sourcePoint" />
            <mxPoint x="620" y="480" as="targetPoint" />
            <Array as="points">
              <mxPoint x="1085" y="480" />
            </Array>
          </mxGeometry>
        </mxCell>
        <mxCell id="M0FN-xJ6hnQDgg32db2r-38" value="" style="endArrow=classic;html=1;rounded=0;exitX=-0.007;exitY=0.944;exitDx=0;exitDy=0;exitPerimeter=0;entryX=0.998;entryY=0.8;entryDx=0;entryDy=0;entryPerimeter=0;" edge="1" parent="WIyWlLk6GJQsqaUBKTNV-1" source="M0FN-xJ6hnQDgg32db2r-6" target="M0FN-xJ6hnQDgg32db2r-22">
          <mxGeometry width="50" height="50" relative="1" as="geometry">
            <mxPoint x="920" y="490" as="sourcePoint" />
            <mxPoint x="970" y="440" as="targetPoint" />
          </mxGeometry>
        </mxCell>
        <mxCell id="M0FN-xJ6hnQDgg32db2r-39" value="&lt;div style=&quot;text-align: left;&quot;&gt;k_que_start&lt;/div&gt;" style="rounded=0;whiteSpace=wrap;html=1;" vertex="1" parent="WIyWlLk6GJQsqaUBKTNV-1">
          <mxGeometry x="1000" y="600" width="175" height="60" as="geometry" />
        </mxCell>
        <mxCell id="M0FN-xJ6hnQDgg32db2r-40" value="" style="endArrow=classic;html=1;rounded=0;entryX=0;entryY=0.5;entryDx=0;entryDy=0;exitX=0.007;exitY=0.913;exitDx=0;exitDy=0;exitPerimeter=0;" edge="1" parent="WIyWlLk6GJQsqaUBKTNV-1" source="M0FN-xJ6hnQDgg32db2r-22" target="M0FN-xJ6hnQDgg32db2r-39">
          <mxGeometry width="50" height="50" relative="1" as="geometry">
            <mxPoint x="830" y="580" as="sourcePoint" />
            <mxPoint x="880" y="530" as="targetPoint" />
            <Array as="points">
              <mxPoint x="-30" y="570" />
              <mxPoint x="-30" y="630" />
            </Array>
          </mxGeometry>
        </mxCell>
        <mxCell id="M0FN-xJ6hnQDgg32db2r-41" value="given k_proc_schedule_switch called with procId == 0&lt;br&gt;&lt;br&gt;returned to kernel code" style="text;html=1;strokeColor=none;fillColor=none;align=center;verticalAlign=middle;whiteSpace=wrap;rounded=0;" vertex="1" parent="WIyWlLk6GJQsqaUBKTNV-1">
          <mxGeometry x="-32.5" y="570" width="182.5" height="60" as="geometry" />
        </mxCell>
      </root>
    </mxGraphModel>
  </diagram>
</mxfile>
